<?xml version="1.0" encoding="UTF-8"?>
<svg width="32px" height="32px" viewBox="0 0 32 32" version="1.1" xmlns="http://www.w3.org/2000/svg" xmlns:xlink="http://www.w3.org/1999/xlink">
    <title>c-add copy</title>
    <g id="Page-1" stroke="none" stroke-width="1" fill="none" fill-rule="evenodd">
        <g id="list-view" transform="translate(-1000.000000, -283.000000)" fill-rule="nonzero">
            <g id="c-add-copy" transform="translate(1000.000000, 283.000000)">
                <path d="M16,32 C7.1776487,32 0,24.8226922 0,16 C0,7.17730783 7.1776487,0 16,0 C24.8223513,0 32,7.17730783 32,16 C32,24.8226922 24.8223513,32 16,32 Z" id="Path" fill="#16A34A"></path>
                <path d="M22.9565217,15.3043478 L16.6956522,15.3043478 L16.6956522,9.04347826 C16.6956522,8.65897043 16.3841739,8.34782609 16,8.34782609 C15.6158261,8.34782609 15.3043478,8.65897043 15.3043478,9.04347826 L15.3043478,15.3043478 L9.04347826,15.3043478 C8.65930435,15.3043478 8.34782609,15.6154922 8.34782609,16 C8.34782609,16.3845078 8.65930435,16.6956522 9.04347826,16.6956522 L15.3043478,16.6956522 L15.3043478,22.9565217 C15.3043478,23.3410296 15.6158261,23.6521739 16,23.6521739 C16.3841739,23.6521739 16.6956522,23.3410296 16.6956522,22.9565217 L16.6956522,16.6956522 L22.9565217,16.6956522 C23.3406957,16.6956522 23.6521739,16.3845078 23.6521739,16 C23.6521739,15.6154922 23.3406957,15.3043478 22.9565217,15.3043478 Z" id="Path" fill="#FFFFFF"></path>
            </g>
        </g>
    </g>
</svg>