<?xml version="1.0" encoding="UTF-8"?>
<svg width="32px" height="32px" viewBox="0 0 32 32" version="1.1" xmlns="http://www.w3.org/2000/svg" xmlns:xlink="http://www.w3.org/1999/xlink">
    <title>c-remove</title>
    <g id="Page-1" stroke="none" stroke-width="1" fill="none" fill-rule="evenodd">
        <g id="delete-interaction-+-opened-description" transform="translate(-1064.000000, -525.000000)" fill-rule="nonzero">
            <g id="Group-9" transform="translate(1056.000000, 517.000000)">
                <g id="c-remove" transform="translate(8.000000, 8.000000)">
                    <path d="M16,32 C7.1776487,32 0,24.8226922 0,16 C0,7.17730783 7.1776487,0 16,0 C24.8223513,0 32,7.17730783 32,16 C32,24.8226922 24.8223513,32 16,32 Z" id="Path" fill="#EF4444"></path>
                    <path d="M16.9836939,16 L22.0570643,10.9266296 C22.3288,10.6548939 22.3288,10.2146713 22.0570643,9.94293565 C21.7853287,9.6712 21.3451061,9.6712 21.0733704,9.94293565 L16,15.0163061 L10.9266296,9.94293565 C10.6548939,9.6712 10.2146713,9.6712 9.94293565,9.94293565 C9.6712,10.2146713 9.6712,10.6548939 9.94293565,10.9266296 L15.0163061,16 L9.94293565,21.0733704 C9.6712,21.3451061 9.6712,21.7853287 9.94293565,22.0570643 C10.0788035,22.1929322 10.256793,22.2608696 10.4347826,22.2608696 C10.6127722,22.2608696 10.7907617,22.1929322 10.9266296,22.0570643 L16,16.9836939 L21.0733704,22.0570643 C21.2092383,22.1929322 21.3872278,22.2608696 21.5652174,22.2608696 C21.743207,22.2608696 21.9211965,22.1929322 22.0570643,22.0570643 C22.3288,21.7853287 22.3288,21.3451061 22.0570643,21.0733704 L16.9836939,16 Z" id="Path" fill="#FFFFFF"></path>
                </g>
            </g>
        </g>
    </g>
</svg>